# xmcd CD database file
#
# Track frame offsets:
#	150
#	18232
#	31020
#	40185
#	59560
#	67540
#	81495
#	96087
#	109597
#	118820
#	128960
#	138502
#	154247
#
# Disc length: 2218 seconds
#
# Revision: 0
# Processed by: cddbd v1.4PL0 Copyright (c) Steve Scherf et al.
# Submitted via: CDex 1.51
#
DISCID=a808a80d
DTITLE=Jimmy Lee Williams - Hoot Your Belly
DYEAR=2004
DGENRE=Blues
TTITLE0=What Make Grandpa Love My Grandma
TTITLE1=Hoot Your Belly
TTITLE2=See Here Woman
TTITLE3=Have You Ever Seen Peaches
TTITLE4=Jimmy Lee's Frolic
TTITLE5=Rock On Away From Here
TTITLE6=When You Hear Me Howling
TTITLE7=Pretty Baby
TTITLE8=Little Boy Blue
TTITLE9=Step It Up And Go
TTITLE10=I Got To Know
TTITLE11=Whiskey Headed Woman
TTITLE12=You Got My Money
EXTD=YEAR: 2004
EXTT0=
EXTT1=
EXTT2=
EXTT3=
EXTT4=
EXTT5=
EXTT6=
EXTT7=
EXTT8=
EXTT9=
EXTT10=
EXTT11=
EXTT12=
PLAYORDER=
